<?xml version="1.0" standalone="no"?>
<!DOCTYPE svg PUBLIC "-//W3C//DTD SVG 20010904//EN"
 "http://www.w3.org/TR/2001/REC-SVG-20010904/DTD/svg10.dtd">
<svg version="1.0" xmlns="http://www.w3.org/2000/svg"
 width="52.000000pt" height="52.000000pt" viewBox="0 0 512.000000 512.000000"
 preserveAspectRatio="xMidYMid meet">

<g transform="translate(0.000000,512.000000) scale(0.100000,-0.100000)"
fill="#6D9AB0" stroke="none">
<path d="M1945 4600 c-89 -16 -174 -47 -248 -90 -62 -36 -180 -150 -817 -789
-807 -808 -792 -791 -847 -956 -23 -69 -27 -96 -27 -205 0 -109 4 -136 27
-205 55 -166 40 -148 847 -956 668 -670 753 -751 823 -792 107 -62 215 -90
342 -91 124 -1 183 13 305 71 166 80 295 231 352 413 19 61 23 97 23 195 0
105 -4 131 -29 208 -16 48 -46 116 -68 150 -27 42 -194 216 -511 535 l-472
472 472 473 c317 318 484 492 511 534 22 34 52 102 68 150 25 77 29 103 29
208 0 98 -4 134 -23 195 -36 116 -85 195 -177 287 -68 67 -99 89 -176 126 -52
25 -115 50 -140 56 -67 16 -206 21 -264 11z m246 -368 c74 -36 125 -87 161
-160 29 -59 33 -76 33 -147 -1 -150 22 -122 -638 -782 l-582 -583 582 -582
c660 -662 637 -633 637 -783 0 -65 -4 -90 -26 -136 -85 -184 -287 -254 -469
-164 -44 22 -189 162 -770 743 -539 541 -720 728 -737 763 -50 106 -51 214 -1
314 14 29 256 277 748 769 828 828 770 780 931 773 62 -2 98 -9 131 -25z"/>
<path d="M4315 4596 c-94 -18 -170 -48 -246 -97 -45 -29 -274 -250 -777 -752
-392 -392 -734 -739 -759 -772 -188 -246 -188 -584 0 -830 25 -33 371 -384
769 -780 532 -530 738 -729 781 -754 157 -92 343 -120 517 -79 25 5 86 29 135
53 365 174 494 629 278 975 -22 34 -214 235 -506 528 l-472 472 472 473 c292
292 484 493 506 527 216 345 86 801 -278 975 -49 24 -111 48 -136 54 -79 18
-209 22 -284 7z m283 -376 c131 -70 200 -211 172 -354 -7 -33 -21 -79 -32
-101 -13 -25 -232 -253 -601 -622 l-582 -583 582 -582 c660 -662 637 -633 637
-783 0 -65 -5 -91 -26 -137 -83 -181 -289 -253 -469 -163 -44 22 -189 162
-765 738 -440 440 -721 729 -737 757 -57 101 -57 240 0 340 24 43 1316 1349
1426 1442 26 22 74 51 105 65 48 20 70 23 142 20 74 -3 93 -7 148 -37z"/>
</g>
</svg>
