<?xml version="1.0" standalone="no"?>
<!DOCTYPE svg PUBLIC "-//W3C//DTD SVG 20010904//EN"
 "http://www.w3.org/TR/2001/REC-SVG-20010904/DTD/svg10.dtd">
<svg version="1.0" xmlns="http://www.w3.org/2000/svg"
 width="32.000000pt" height="32.000000pt" viewBox="0 0 512.000000 512.000000"
 preserveAspectRatio="xMidYMid meet">

<g transform="translate(0.000000,512.000000) scale(0.100000,-0.100000)"
fill="#C20000" stroke="none">
<path d="M2100 4737 c-78 -18 -142 -52 -203 -107 -102 -93 -137 -194 -137
-392 l0 -127 -582 -3 c-568 -3 -584 -4 -618 -24 -52 -30 -82 -88 -77 -147 5
-54 27 -91 77 -124 31 -22 44 -23 192 -23 118 0 160 -3 163 -12 2 -7 45 -641
94 -1408 57 -873 96 -1425 106 -1475 48 -242 228 -432 475 -502 61 -17 122
-18 975 -18 1023 0 961 -4 1116 76 181 94 308 273 339 476 6 38 49 691 96
1453 47 762 87 1391 89 1398 3 9 45 12 163 12 148 0 161 1 192 23 48 32 72 69
77 119 7 58 -23 118 -74 149 l-38 24 -581 3 -582 3 -4 152 c-4 128 -8 161 -27
210 -43 110 -142 206 -258 250 -56 21 -73 22 -488 24 -309 1 -445 -2 -485 -10z
m911 -355 c29 -32 29 -34 29 -152 l0 -120 -480 0 -480 0 0 119 c0 113 1 121
25 150 14 16 36 32 48 34 12 3 203 4 425 3 l404 -1 29 -33z m869 -624 c0 -13
-38 -642 -85 -1398 -58 -933 -91 -1391 -100 -1426 -29 -103 -120 -196 -218
-226 -33 -10 -242 -13 -927 -13 l-885 0 -55 26 c-31 14 -72 40 -91 57 -43 38
-96 133 -104 188 -6 41 -165 2719 -165 2779 l0 35 1315 0 1315 0 0 -22z"/>
<path d="M1840 3228 c-18 -13 -43 -36 -54 -51 -21 -28 -21 -31 -21 -937 0
-906 0 -909 21 -937 73 -98 195 -98 268 0 21 28 21 31 21 937 0 906 0 909 -21
937 -35 48 -82 73 -134 73 -32 0 -57 -7 -80 -22z"/>
<path d="M2480 3228 c-18 -13 -43 -36 -54 -51 -21 -28 -21 -31 -21 -937 0
-906 0 -909 21 -937 73 -98 195 -98 268 0 21 28 21 31 21 937 0 906 0 909 -21
937 -35 48 -82 73 -134 73 -32 0 -57 -7 -80 -22z"/>
<path d="M3120 3228 c-18 -13 -43 -36 -54 -51 -21 -28 -21 -31 -21 -937 0
-906 0 -909 21 -937 73 -98 195 -98 268 0 21 28 21 31 21 937 0 906 0 909 -21
937 -35 48 -82 73 -134 73 -32 0 -57 -7 -80 -22z"/>
</g>
</svg>
