<?xml version="1.0" standalone="no"?>
<!DOCTYPE svg PUBLIC "-//W3C//DTD SVG 20010904//EN"
 "http://www.w3.org/TR/2001/REC-SVG-20010904/DTD/svg10.dtd">
<svg version="1.0" xmlns="http://www.w3.org/2000/svg"
 width="128.000000pt" height="128.000000pt" viewBox="0 0 512.000000 512.000000"
 preserveAspectRatio="xMidYMid meet">

<g transform="translate(0.000000,512.000000) scale(0.100000,-0.100000)"
fill="#6D9AB0" stroke="none">
<path d="M776 4391 c-16 -11 -65 -59 -109 -108 -357 -395 -574 -863 -648
-1403 -18 -125 -18 -515 0 -640 74 -540 291 -1008 650 -1405 92 -102 127 -125
189 -125 83 0 144 61 144 144 0 57 -11 76 -89 159 -342 365 -557 842 -602
1337 -60 647 159 1285 602 1757 78 83 89 102 89 159 0 52 -28 101 -70 127 -41
23 -119 22 -156 -2z"/>
<path d="M4186 4391 c-43 -29 -68 -74 -68 -125 0 -57 11 -76 89 -159 442 -472
661 -1110 602 -1757 -45 -496 -259 -972 -602 -1337 -78 -83 -89 -102 -89 -159
0 -83 61 -144 144 -144 60 0 95 22 180 115 848 927 907 2320 139 3305 -96 123
-206 242 -243 263 -43 23 -115 22 -152 -2z"/>
<path d="M1239 3940 c-38 -20 -141 -132 -224 -245 -268 -362 -403 -834 -366
-1276 37 -441 193 -808 486 -1142 101 -116 162 -139 246 -96 29 14 46 32 60
62 36 80 20 125 -82 235 -90 98 -205 270 -262 392 -241 517 -197 1115 117
1585 41 60 106 145 145 187 102 110 118 155 82 235 -34 74 -126 103 -202 63z"/>
<path d="M3738 3939 c-43 -22 -78 -81 -78 -129 0 -45 24 -86 102 -170 86 -93
204 -267 257 -381 246 -525 202 -1123 -118 -1601 -38 -57 -100 -137 -139 -178
-106 -115 -120 -155 -83 -237 34 -74 123 -103 199 -64 40 20 144 133 227 246
268 363 403 834 366 1275 -37 441 -193 809 -486 1143 -101 115 -165 140 -247
96z"/>
<path d="M1735 3500 c-52 -11 -74 -29 -153 -124 -172 -208 -272 -453 -290
-708 -24 -355 72 -660 290 -924 86 -103 119 -126 184 -126 90 0 151 68 142
160 -5 54 -5 54 -113 182 -66 78 -146 236 -175 343 -41 152 -42 362 -1 513 30
108 110 266 176 344 109 130 108 128 113 185 3 42 0 61 -16 87 -34 54 -96 81
-157 68z"/>
<path d="M3325 3500 c-78 -17 -120 -74 -113 -155 5 -57 4 -55 113 -185 65 -77
145 -234 177 -345 20 -70 23 -103 23 -255 0 -152 -3 -185 -23 -255 -32 -112
-112 -268 -177 -345 -110 -130 -115 -139 -115 -193 0 -88 59 -149 144 -149 59
0 94 21 153 89 168 196 268 402 309 637 25 142 15 399 -20 531 -31 115 -76
224 -135 328 -46 79 -171 239 -212 269 -32 24 -85 36 -124 28z"/>
<path d="M2450 3184 c-231 -45 -417 -211 -496 -444 -27 -78 -27 -282 0 -360
75 -222 236 -375 454 -431 209 -53 439 9 591 161 118 117 179 252 188 416 17
287 -154 536 -434 635 -57 21 -243 34 -303 23z m227 -315 c123 -46 213 -176
213 -309 0 -179 -151 -330 -330 -330 -179 0 -330 151 -330 330 0 229 231 388
447 309z"/>
</g>
</svg>
