<?xml version="1.0" standalone="no"?>
<!DOCTYPE svg PUBLIC "-//W3C//DTD SVG 20010904//EN"
 "http://www.w3.org/TR/2001/REC-SVG-20010904/DTD/svg10.dtd">
<svg version="1.0" xmlns="http://www.w3.org/2000/svg"
 width="27.000000pt" height="27.000000pt" viewBox="0 0 512.000000 512.000000"
 preserveAspectRatio="xMidYMid meet">

<g transform="translate(0.000000,512.000000) scale(0.100000,-0.100000)"
fill="#6D9AB0" stroke="none">
<path d="M105 5106 c-37 -17 -80 -62 -94 -99 -15 -40 -15 -4854 0 -4894 14
-38 57 -83 96 -99 48 -21 4858 -21 4906 0 39 16 82 61 96 99 7 19 11 245 11
684 0 564 -2 659 -15 687 -8 17 -161 182 -340 365 l-325 333 0 1129 0 1129 21
0 c34 0 92 38 119 77 24 35 25 42 28 237 4 218 -2 255 -45 307 -52 61 -18 59
-893 59 -870 0 -837 2 -892 -56 -44 -47 -48 -73 -48 -288 0 -193 1 -205 23
-247 25 -46 84 -89 125 -89 l22 0 0 -338 0 -339 -203 206 c-112 113 -401 409
-642 656 -243 250 -456 460 -478 473 l-40 22 -701 0 c-563 -1 -707 -3 -731
-14z m1002 -278 c68 -68 123 -126 123 -130 0 -5 -238 -8 -530 -8 l-530 0 0
130 0 130 407 0 408 0 122 -122z m2118 -1645 l1725 -1768 0 -140 0 -140 -94
95 c-51 52 -835 856 -1741 1785 -906 930 -1702 1745 -1769 1813 l-121 122 137
0 137 0 1726 -1767z m1215 1597 l0 -170 -770 0 -770 0 0 170 0 170 770 0 770
0 0 -170z m-2950 -345 l85 -85 -703 0 -702 0 0 85 0 85 618 0 617 0 85 -85z
m2778 -82 l3 -83 -221 0 c-271 0 -290 -6 -290 -94 0 -21 8 -40 23 -54 22 -21
33 -22 252 -24 l230 -3 3 -863 c1 -554 -1 -863 -8 -860 -5 1 -275 275 -600
608 l-590 605 3 255 2 255 230 3 c219 2 230 3 252 24 33 31 31 87 -3 119 -25
24 -28 24 -255 27 l-229 3 0 85 0 84 598 -2 597 -3 3 -82z m-926 -1815 l1603
-1642 3 -363 2 -363 -85 0 -85 0 0 310 c0 257 -3 317 -15 347 -21 50 -42 72
-90 94 -38 17 -82 19 -748 19 -615 0 -712 -2 -744 -15 -50 -21 -72 -42 -94
-90 -17 -36 -19 -71 -19 -352 l0 -313 -125 0 -125 0 0 181 0 182 34 38 c19 21
38 53 41 72 4 19 5 110 3 203 -3 141 -6 175 -22 204 -26 49 -64 88 -111 113
-40 22 -45 22 -805 27 l-765 5 -7 53 c-15 103 -93 208 -187 253 -98 46 -332
52 -438 11 l-53 -20 0 253 0 253 -32 27 c-38 32 -81 29 -115 -11 l-23 -25 0
-910 0 -909 -85 0 -85 0 0 2005 0 2005 784 0 785 0 1603 -1642z m-2458 -1178
c70 -16 136 -84 136 -141 l0 -29 -250 0 c-282 0 -275 -2 -242 73 22 50 69 87
121 98 53 10 190 10 235 -1z m1821 -365 c24 -23 25 -28 25 -170 l0 -145 -1110
0 -1110 0 0 170 0 170 1085 0 1086 0 24 -25z m1905 -525 l0 -300 -685 0 -685
0 0 300 0 300 685 0 685 0 0 -300z m-1962 -127 l-3 -168 -1067 -3 -1068 -2 0
170 0 170 1070 0 1070 0 -2 -167z"/>
<path d="M426 3387 c-25 -14 -48 -39 -63 -66 l-23 -44 0 -458 c0 -299 4 -467
11 -486 14 -38 57 -83 96 -99 27 -12 189 -14 921 -14 l889 0 43 23 c30 16 51
37 67 67 l23 43 0 461 c0 428 -2 464 -19 502 -10 23 -34 52 -52 65 l-34 24
-910 2 -910 3 -39 -23z m854 -572 l0 -425 -385 0 -385 0 0 425 0 425 385 0
385 0 0 -425z m940 0 l0 -425 -385 0 -385 0 0 425 0 425 385 0 385 0 0 -425z"/>
</g>
</svg>
