<?xml version="1.0" standalone="no"?>
<!DOCTYPE svg PUBLIC "-//W3C//DTD SVG 20010904//EN"
 "http://www.w3.org/TR/2001/REC-SVG-20010904/DTD/svg10.dtd">
<svg version="1.0" xmlns="http://www.w3.org/2000/svg"
 width="35.000000pt" height="35.000000pt" viewBox="0 0 512.000000 512.000000"
 preserveAspectRatio="xMidYMid meet">

<g transform="translate(0.000000,512.000000) scale(0.100000,-0.100000)"
fill="#6D9AB0" stroke="none">
<path d="M1103 4265 c-29 -8 -72 -24 -94 -36 -53 -27 -131 -104 -158 -157 -46
-91 -51 -136 -51 -493 l0 -336 -107 -6 c-196 -10 -340 -74 -478 -212 -92 -93
-135 -160 -179 -283 l-31 -87 -3 -627 -3 -628 81 0 80 0 0 -280 0 -280 200 0
200 0 0 280 0 280 2000 0 2000 0 0 -280 0 -280 200 0 200 0 0 280 0 280 80 0
81 0 -3 628 -3 627 -31 87 c-44 123 -87 190 -179 283 -138 137 -282 202 -477
212 l-107 6 -3 361 c-3 350 -4 363 -26 419 -44 107 -121 184 -233 230 l-54 22
-1425 2 c-1205 2 -1433 0 -1477 -12z m2912 -169 c60 -28 97 -66 124 -126 19
-42 21 -65 21 -387 l0 -343 -120 0 -120 0 0 183 c0 161 -3 187 -21 227 -27 60
-64 98 -124 126 l-50 24 -405 0 c-386 0 -407 -1 -450 -21 -60 -27 -98 -64
-126 -124 -22 -47 -24 -62 -24 -232 l0 -183 -160 0 -160 0 0 183 c0 170 -2
185 -24 232 -28 60 -66 97 -126 124 -43 20 -64 21 -450 21 l-405 0 -50 -24
c-60 -28 -97 -66 -124 -126 -18 -40 -21 -66 -21 -227 l0 -183 -120 0 -120 0 0
343 c0 322 2 345 21 387 27 60 64 98 124 126 l50 24 1405 0 1405 0 50 -24z
m-1814 -469 c34 -26 39 -55 39 -221 l0 -166 -440 0 -440 0 0 173 c1 178 3 191
45 215 29 17 774 16 796 -1z m1520 0 c34 -26 39 -55 39 -221 l0 -166 -440 0
-440 0 0 173 c1 178 3 191 45 215 29 17 774 16 796 -1z m853 -574 c172 -65
295 -188 358 -359 20 -54 23 -81 26 -316 l4 -258 -2401 0 -2401 0 0 223 c0
123 5 250 11 282 39 210 229 404 435 444 30 5 812 8 1979 7 l1930 -1 59 -22z
m386 -1293 l0 -200 -2400 0 -2400 0 0 200 0 200 2400 0 2400 0 0 -200z m-4560
-560 l0 -200 -40 0 -40 0 0 200 0 200 40 0 40 0 0 -200z m4400 0 l0 -200 -40
0 -40 0 0 200 0 200 40 0 40 0 0 -200z"/>
</g>
</svg>
