<?xml version="1.0" standalone="no"?>
<!DOCTYPE svg PUBLIC "-//W3C//DTD SVG 20010904//EN"
 "http://www.w3.org/TR/2001/REC-SVG-20010904/DTD/svg10.dtd">
<svg version="1.0" xmlns="http://www.w3.org/2000/svg"
 width="27.000000pt" height="27.000000pt" viewBox="0 0 512.000000 512.000000"
 preserveAspectRatio="xMidYMid meet">

<g transform="translate(0.000000,512.000000) scale(0.100000,-0.100000)"
fill="#6D9AB0" stroke="none">
<path d="M580 2565 l0 -2555 190 0 190 0 0 2370 0 2370 1253 -1 c688 0 1248
-2 1242 -4 -5 -2 -307 -56 -670 -120 -363 -63 -684 -120 -713 -126 l-52 -10 2
-1997 3 -1996 985 -243 c542 -133 995 -245 1008 -248 l22 -5 0 365 0 365 60 0
60 0 0 -365 0 -365 190 0 190 0 0 2560 0 2560 -1980 0 -1980 0 0 -2555z m3580
1950 l0 -235 -60 0 -60 0 0 235 0 235 60 0 60 0 0 -235z m0 -2005 l0 -1200
-60 0 -60 0 0 1200 0 1200 60 0 60 0 0 -1200z m-1713 108 c55 -50 72 -164 36
-235 -75 -144 -243 -73 -243 103 0 51 36 122 74 146 40 24 98 19 133 -14z"/>
</g>
</svg>
