<?xml version="1.0" standalone="no"?>
<!DOCTYPE svg PUBLIC "-//W3C//DTD SVG 20010904//EN"
 "http://www.w3.org/TR/2001/REC-SVG-20010904/DTD/svg10.dtd">
<svg version="1.0" xmlns="http://www.w3.org/2000/svg"
 width="27.000000pt" height="27.000000pt" viewBox="0 0 512.000000 512.000000"
 preserveAspectRatio="xMidYMid meet">

<g transform="translate(0.000000,512.000000) scale(0.100000,-0.100000)"
fill="#6D9AB0" stroke="none">
<path d="M839 5107 c-38 -29 -39 -42 -39 -587 0 -545 1 -558 39 -587 23 -18
3419 -18 3442 0 38 29 39 42 39 587 0 545 -1 558 -39 587 -23 18 -3419 18
-3442 0z m1641 -587 l0 -440 -760 0 -760 0 0 440 0 440 760 0 760 0 0 -440z
m1680 0 l0 -440 -760 0 -760 0 0 440 0 440 760 0 760 0 0 -440z"/>
<path d="M1306 4534 c-15 -16 -26 -38 -26 -54 0 -16 11 -38 26 -54 l27 -26
346 0 c335 0 348 1 369 20 40 38 37 93 -7 127 -12 9 -106 12 -362 13 l-346 0
-27 -26z"/>
<path d="M3066 4534 c-15 -16 -26 -38 -26 -54 0 -16 11 -38 26 -54 l27 -26
346 0 c335 0 348 1 369 20 40 38 37 93 -7 127 -12 9 -106 12 -362 13 l-346 0
-27 -26z"/>
<path d="M991 3739 c-12 -11 -24 -33 -28 -49 -3 -19 -22 -42 -52 -65 -145
-114 -144 -257 3 -372 25 -19 46 -43 46 -53 0 -10 -21 -34 -46 -53 -80 -62
-124 -145 -110 -203 9 -33 45 -64 77 -64 32 0 79 44 79 75 0 15 16 35 46 58
148 115 148 258 2 373 -27 20 -48 44 -48 54 0 10 21 34 46 53 105 82 143 186
88 241 -32 32 -72 34 -103 5z"/>
<path d="M1386 3734 c-14 -15 -26 -37 -26 -49 0 -15 -16 -35 -47 -59 -147
-115 -147 -258 1 -373 25 -19 46 -43 46 -53 0 -10 -21 -34 -46 -53 -58 -45
-91 -90 -105 -141 -13 -47 -6 -79 23 -106 43 -40 112 -12 125 50 3 19 22 42
50 64 147 114 147 258 1 372 -27 20 -48 44 -48 54 0 10 21 34 46 53 58 45 91
90 105 141 13 47 6 79 -23 106 -30 28 -70 25 -102 -6z"/>
<path d="M1786 3734 c-14 -15 -26 -37 -26 -49 0 -15 -16 -35 -47 -59 -147
-115 -147 -258 1 -373 25 -19 46 -43 46 -53 0 -10 -21 -34 -46 -53 -105 -82
-143 -186 -88 -241 47 -46 117 -23 131 44 3 19 22 42 50 64 147 114 147 258 1
372 -27 20 -48 44 -48 54 0 10 21 34 46 53 58 45 91 90 105 141 13 47 6 79
-23 106 -30 28 -70 25 -102 -6z"/>
<path d="M3654 2945 c-89 -19 -160 -59 -230 -129 -121 -121 -144 -203 -144
-518 l0 -218 -668 0 -669 0 29 56 28 57 0 269 c0 274 -3 297 -39 325 -23 18
-1259 18 -1282 0 -36 -28 -39 -51 -39 -325 l0 -269 28 -57 29 -56 -322 0 -322
0 -27 -26 -26 -27 0 -987 0 -987 26 -27 27 -26 2506 0 c1954 1 2509 3 2522 13
9 7 21 22 27 34 17 31 17 1955 0 1986 -25 48 4 46 -855 47 l-813 0 0 80 0 80
53 0 c55 1 76 11 96 48 16 30 7 65 -21 92 -16 15 -35 20 -76 20 l-55 0 5 78
c8 137 72 237 187 291 115 54 264 27 356 -64 47 -48 85 -129 92 -200 10 -91
77 -135 131 -85 31 29 36 59 22 139 -17 101 -59 182 -133 256 -72 72 -142 111
-236 131 -80 17 -127 17 -207 -1z m-1814 -511 c0 -208 -4 -234 -39 -261 -22
-17 -918 -18 -954 -2 -42 19 -47 47 -47 264 l0 205 520 0 520 0 0 -206z
m-1435 -534 c4 -12 16 -30 28 -40 20 -19 36 -20 288 -20 l266 0 27 26 c14 15
26 33 26 40 0 11 25 14 120 14 l120 0 0 -320 0 -320 -560 0 -560 0 0 320 0
320 119 0 c112 0 120 -1 126 -20z m3275 -860 l0 -880 -1120 0 -1120 0 0 880 0
880 1120 0 1120 0 0 -880z m400 866 c0 -7 12 -25 26 -40 l27 -26 266 0 c252 0
268 1 288 20 12 10 24 28 28 40 6 19 14 20 126 20 l119 0 0 -320 0 -320 -560
0 -560 0 0 320 0 320 120 0 c95 0 120 -3 120 -14z m-2800 -1266 l0 -480 -560
0 -560 0 0 480 0 480 560 0 560 0 0 -480z m3680 0 l0 -480 -560 0 -560 0 0
480 0 480 560 0 560 0 0 -480z"/>
<path d="M1546 1654 l-26 -27 0 -427 0 -427 26 -27 27 -26 986 0 c1043 1 1004
-1 1029 47 17 31 17 835 0 866 -25 48 14 46 -1029 47 l-986 0 -27 -26z m1894
-454 l0 -320 -880 0 -880 0 0 320 0 320 880 0 880 0 0 -320z"/>
<path d="M2026 454 c-15 -16 -26 -38 -26 -54 0 -16 11 -38 26 -54 l27 -26 506
0 c496 0 508 0 529 20 40 38 37 93 -7 127 -12 9 -140 12 -522 13 l-506 0 -27
-26z"/>
</g>
</svg>
