<?xml version="1.0" standalone="no"?>
<!DOCTYPE svg PUBLIC "-//W3C//DTD SVG 20010904//EN"
 "http://www.w3.org/TR/2001/REC-SVG-20010904/DTD/svg10.dtd">
<svg version="1.0" xmlns="http://www.w3.org/2000/svg"
 width="27.000000pt" height="27.000000pt" viewBox="0 0 512.000000 512.000000"
 preserveAspectRatio="xMidYMid meet">

<g transform="translate(0.000000,512.000000) scale(0.100000,-0.100000)"
fill="#6D9AB0" stroke="none">
<path d="M267 4838 c-23 -14 -45 -38 -57 -63 -19 -40 -20 -62 -20 -576 0 -501
1 -536 19 -569 10 -19 33 -45 51 -57 l33 -23 1317 0 1317 0 33 23 c18 12 41
38 51 57 18 33 19 68 19 569 0 514 -1 536 -20 576 -13 26 -34 49 -59 63 l-39
22 -1303 0 -1304 0 -38 -22z m2463 -633 l0 -355 -1120 0 -1120 0 0 355 0 355
1120 0 1120 0 0 -355z"/>
<path d="M4085 4585 c-41 -15 -69 -42 -86 -85 -21 -50 -239 -972 -239 -1009 0
-48 34 -100 80 -123 30 -15 65 -18 243 -18 l207 0 0 -179 0 -180 -53 25 c-30
13 -89 29 -133 34 -53 7 -581 10 -1599 8 l-1520 -3 -66 -26 c-111 -43 -188
-109 -247 -211 -39 -69 -52 -134 -52 -265 l0 -123 -133 0 c-90 0 -150 -5 -184
-15 -151 -45 -263 -168 -293 -320 -8 -43 -10 -269 -8 -790 l3 -730 23 -57 c44
-109 131 -196 240 -240 l57 -23 2235 0 2235 0 57 23 c109 44 196 131 240 240
l23 57 3 730 c2 521 0 747 -8 790 -15 77 -51 146 -107 206 -84 90 -183 129
-325 129 l-88 0 0 460 0 460 208 0 c183 0 211 2 242 19 39 20 80 82 80 122 0
51 -238 1011 -257 1037 -11 14 -32 35 -47 46 -26 20 -42 21 -359 23 -268 2
-340 0 -372 -12z m610 -585 c39 -162 74 -307 78 -322 l7 -28 -340 0 c-187 0
-340 2 -340 4 0 11 152 632 157 639 2 4 86 6 185 5 l181 -3 72 -295z m-564
-1268 c56 -34 69 -72 69 -196 l0 -106 -44 0 c-157 0 -322 -123 -375 -282 -19
-57 -21 -83 -21 -360 l0 -298 -1200 0 -1200 0 0 298 c0 277 -2 303 -21 360
-53 159 -218 282 -375 282 l-44 0 0 106 c0 146 25 193 115 215 16 4 712 6
1545 6 l1515 -2 36 -23z m-3105 -636 l34 -34 0 -711 c0 -790 3 -758 -65 -787
-53 -22 -584 -20 -630 2 -67 32 -65 7 -65 772 0 487 3 699 11 721 7 18 26 41
43 52 29 17 54 19 335 19 l303 0 34 -34z m3735 18 c60 -31 59 -17 59 -775 0
-766 2 -741 -65 -773 -46 -22 -577 -24 -630 -2 -68 29 -65 -3 -65 787 l0 711
34 34 34 34 301 0 c255 0 307 -2 332 -16z m-1001 -1213 c0 -159 3 -303 6 -320
l7 -31 -1213 0 -1212 0 6 31 c3 17 6 161 6 320 l0 289 1200 0 1200 0 0 -289z"/>
</g>
</svg>
