<?xml version="1.0" standalone="no"?>
<!DOCTYPE svg PUBLIC "-//W3C//DTD SVG 20010904//EN"
 "http://www.w3.org/TR/2001/REC-SVG-20010904/DTD/svg10.dtd">
<svg version="1.0" xmlns="http://www.w3.org/2000/svg"
 width="27.000000pt" height="27.000000pt" viewBox="0 0 512.000000 512.000000"
 preserveAspectRatio="xMidYMid meet">

<g transform="translate(0.000000,512.000000) scale(0.100000,-0.100000)"
fill="#C20000" stroke="none">
<path d="M2339 4731 l-29 -29 0 -212 0 -212 29 -29 c20 -20 39 -29 61 -29 22
0 41 9 61 29 l29 29 0 212 0 212 -29 29 c-20 20 -39 29 -61 29 -22 0 -41 -9
-61 -29z"/>
<path d="M2753 4436 l-28 -24 -3 -151 -3 -151 30 -30 c38 -38 78 -39 120 -4
l31 26 0 150 0 150 -29 29 c-37 36 -79 38 -118 5z"/>
<path d="M1959 4321 l-29 -29 0 -130 0 -130 31 -26 c42 -35 82 -34 121 4 l30
30 -4 131 c-3 129 -3 131 -31 155 -39 33 -81 31 -118 -5z"/>
<path d="M2446 3989 c-21 -25 -26 -41 -26 -85 0 -50 -2 -54 -27 -60 -74 -16
-164 -49 -223 -81 -95 -52 -225 -187 -273 -283 -45 -91 -77 -212 -77 -292 0
-52 4 -63 29 -89 l29 -29 630 0 630 0 31 26 c29 24 31 31 31 87 -1 190 -99
387 -258 519 -81 66 -186 114 -314 142 -26 6 -28 10 -28 57 0 81 -29 118 -92
119 -28 0 -42 -7 -62 -31z m184 -330 c172 -40 346 -212 375 -371 l7 -38 -502
0 -502 0 6 33 c3 17 22 65 41 106 60 125 184 228 322 266 58 16 192 18 253 4z"/>
<path d="M210 3947 c-59 -30 -62 13 52 -895 97 -770 106 -835 127 -855 19 -19
35 -22 121 -25 55 -2 100 -8 100 -13 0 -5 -43 -266 -95 -579 -52 -313 -95
-574 -95 -579 0 -5 12 -23 26 -40 21 -25 33 -31 65 -31 58 0 84 30 98 116 7
38 51 305 99 594 l88 525 208 3 c195 2 207 1 202 -15 -3 -10 -66 -362 -141
-782 -118 -660 -135 -767 -125 -792 24 -57 199 -144 350 -175 62 -12 111 -15
190 -11 126 7 198 25 307 76 l81 39 64 -25 c322 -131 683 -132 1003 -4 l78 32
81 -35 c327 -140 708 -124 1018 44 94 51 99 -16 -56 862 -75 425 -136 776
-136 781 0 4 91 7 203 7 l202 0 100 -597 c111 -668 103 -643 185 -643 44 0 75
23 85 62 3 13 -37 281 -90 595 -52 315 -95 574 -95 577 0 2 45 6 101 8 94 3
102 5 123 29 20 23 31 95 126 857 l104 832 -21 28 c-38 51 -114 51 -146 0 -10
-15 -46 -277 -106 -763 -51 -407 -95 -755 -98 -773 l-5 -32 -352 2 -351 3 -32
180 c-17 99 -39 222 -49 274 -12 71 -22 100 -40 118 l-23 23 -1179 0 -1179 0
-22 -24 c-19 -20 -30 -68 -72 -297 -27 -151 -49 -275 -49 -276 0 -2 -160 -3
-355 -3 -240 0 -355 3 -355 10 0 45 -193 1536 -200 1550 -24 45 -74 61 -120
37z m3420 -1184 c0 -5 83 -478 184 -1053 137 -773 182 -1047 173 -1052 -21
-14 -120 -49 -197 -71 -61 -17 -104 -21 -230 -21 -170 0 -228 10 -370 65 l-80
30 0 577 c0 369 -4 591 -11 614 -10 38 -48 68 -84 68 -36 0 -74 -30 -84 -68
-7 -23 -11 -244 -11 -610 l0 -573 -47 -20 c-78 -34 -220 -68 -330 -80 -163
-17 -352 9 -523 74 l-65 24 -5 426 c-5 426 -5 426 -28 449 -33 34 -97 31 -128
-5 l-24 -28 0 -425 0 -425 -67 -31 c-145 -65 -315 -74 -461 -25 -97 34 -124
52 -117 80 3 12 86 477 185 1032 99 556 182 1020 185 1033 l5 22 1065 0 c586
0 1065 -3 1065 -7z"/>
</g>
</svg>
